<?xml version="1.0" encoding="UTF-8" standalone="no"?>
<!-- Created with Inkscape (http://www.inkscape.org/) -->

<svg
   version="1.1"
   id="svg1"
   width="300"
   height="89.599998"
   viewBox="0 0 300 89.599998"
   sodipodi:docname="TUMuch_logo.svg"
   inkscape:version="1.4.2 (f4327f4, 2025-05-13)"
   xmlns:inkscape="http://www.inkscape.org/namespaces/inkscape"
   xmlns:sodipodi="http://sodipodi.sourceforge.net/DTD/sodipodi-0.dtd"
   xmlns="http://www.w3.org/2000/svg"
   xmlns:svg="http://www.w3.org/2000/svg">
  <defs
     id="defs1" />
  <sodipodi:namedview
     id="namedview1"
     pagecolor="#ffffff"
     bordercolor="#000000"
     borderopacity="0.25"
     inkscape:showpageshadow="2"
     inkscape:pageopacity="0.0"
     inkscape:pagecheckerboard="0"
     inkscape:deskcolor="#d1d1d1"
     inkscape:zoom="1.0447503"
     inkscape:cx="55.515659"
     inkscape:cy="40.679578"
     inkscape:window-width="1920"
     inkscape:window-height="991"
     inkscape:window-x="-9"
     inkscape:window-y="-9"
     inkscape:window-maximized="1"
     inkscape:current-layer="g1" />
  <g
     inkscape:groupmode="layer"
     inkscape:label="Image"
     id="g1">
    <path
       style="fill:#0065bd;fill-opacity:1"
       d="m 20.042833,50.128506 v -32 h -7 -6.9999996 v -6.5 -6.5 H 34.528981 63.015127 l 0.263853,32.25 0.263853,32.25 h 8.5 8.5 l 0.263853,-32.25 0.263853,-32.25 h 36.486141 36.48615 v 38.5 38.499998 h -6.5 -6.5 v -31.999998 -32 h -8.5 -8.5 v 32 31.999998 h -6.5 -6.5 v -31.999998 -32 h -8.5 -8.499997 v 32 31.999998 h -22 -22 v -31.999998 -32 h -8.499999 -8.5 v 32 31.999998 h -6.5 -6.500001 z m 152.366707,30.08194 c -6.11743,-3.73023 -6.36671,-4.70143 -6.36671,-24.80445 v -18.27749 h 3 3 v 16.42327 c 0,16.20959 0.0337,16.46331 2.58889,19.5 2.25667,2.6819 3.23197,3.07673 7.6,3.07673 4.36558,0 5.4491,-0.43799 8.41111,-3.4 l 3.4,-3.4 v -16.1 -16.1 h 3.5 3.5 v 22 21.999998 h -3 c -2.7058,0 -3,-0.312548 -3,-3.187088 v -3.18709 l -2.75,2.5649 c -1.5125,1.4107 -3.73292,3.06989 -4.93426,3.687088 -3.46642,1.78091 -11.4174,1.35761 -14.94903,-0.795868 z m 51.13329,0.34866 c -8.38014,-4.34951 -12.22955,-12.71508 -11.15346,-24.23872 0.73988,-7.9232 3.00597,-12.64854 7.95983,-16.59814 3.22464,-2.57094 4.82935,-3.08649 10.5,-3.37339 5.16794,-0.26147 7.49139,0.0969 10.19363,1.57211 3.5534,1.93991 8,7.40722 8,9.83637 0,1.82841 -5.25781,3.09774 -5.82189,1.40551 -0.23495,-0.70485 -1.6301,-2.62784 -3.10034,-4.27333 -2.32763,-2.60507 -3.3537,-2.99178 -7.93819,-2.99178 -4.14622,0 -5.81034,0.50264 -7.83119,2.36538 -3.68934,3.40071 -5.30839,7.93462 -5.30839,14.86539 0,11.30189 4.47313,17.23077 13,17.23077 5.86801,0 9.22501,-2.35248 10.99043,-7.70177 0.92141,-2.7919 1.40969,-3.12389 4.02902,-2.73945 3.54217,0.51988 3.63319,1.23083 0.8845,6.90886 -3.93786,8.134538 -16.16478,12.008538 -24.40395,7.73219 z m 34.5,-29.9306 v -30.5 h 3 3 v 10.5 c 0,6.60575 0.3859,10.5 1.04049,10.5 0.57227,0 2.40997,-1.0125 4.08378,-2.25 4.17436,-3.08624 15.06297,-3.22908 19.05736,-0.25 4.59234,3.42504 5.13931,5.84049 5.60462,24.75 l 0.43677,17.749998 h -3.61151 -3.61151 V 65.078846 c 0,-21.04688 -0.87633,-22.95034 -10.56601,-22.95034 -3.39202,0 -5.10678,0.63116 -7.4713,2.75 -4.01303,3.59606 -4.90957,7.86202 -4.93883,23.5 l -0.0239,12.749998 h -3 -3 z"
       id="path2" />
  </g>
</svg>
