<svg xmlns="http://www.w3.org/2000/svg" width="300" height="89.6"><path d="M20.043 50.129v-32h-14v-13h56.972l.264 32.25.264 32.25h17l.264-32.25.264-32.25h72.972v77h-13v-64h-17v64h-13v-64h-17v64h-44v-64h-17v64h-13zM172.41 80.21c-6.118-3.73-6.367-4.701-6.367-24.804V37.129h6v16.423c0 16.21.034 16.463 2.589 19.5 2.256 2.682 3.232 3.077 7.6 3.077 4.365 0 5.449-.438 8.41-3.4l3.4-3.4v-32.2h7v44h-3c-2.705 0-3-.313-3-3.188v-3.187l-2.75 2.565c-1.512 1.41-3.732 3.07-4.933 3.687-3.467 1.781-11.418 1.358-14.95-.796zm51.133.35c-8.38-4.35-12.23-12.716-11.154-24.24.74-7.923 3.006-12.648 7.96-16.598 3.225-2.57 4.83-3.086 10.5-3.373 5.168-.262 7.492.097 10.194 1.572 3.553 1.94 8 7.407 8 9.836 0 1.829-5.258 3.098-5.822 1.406-.235-.705-1.63-2.628-3.1-4.273-2.328-2.606-3.354-2.992-7.939-2.992-4.146 0-5.81.502-7.83 2.365-3.69 3.4-5.31 7.935-5.31 14.866 0 11.301 4.474 17.23 13 17.23 5.869 0 9.226-2.352 10.991-7.701.922-2.792 1.41-3.124 4.03-2.74 3.541.52 3.632 1.23.884 6.909-3.938 8.134-16.165 12.008-24.404 7.732zm34.5-29.931v-30.5h6v10.5c0 6.605.386 10.5 1.04 10.5.573 0 2.41-1.013 4.084-2.25 4.174-3.087 15.063-3.23 19.057-.25 4.593 3.425 5.14 5.84 5.605 24.75l.437 17.75H287.043v-16.05c0-21.047-.877-22.95-10.566-22.95-3.392 0-5.107.63-7.471 2.75-4.014 3.596-4.91 7.862-4.94 23.5l-.023 12.75h-6z" style="fill:#0065bd;fill-opacity:1"/></svg>